<svg xmlns="http://www.w3.org/2000/svg" width="63.649" height="65.282" viewBox="0 0 63.649 65.282">
  <g id="Group_6" data-name="Group 6" transform="translate(-83.001 -133.999)">
    <path id="Union_1" data-name="Union 1" d="M1369.589-10996.959q-2.065-2.244-2.065-6.653a10.623,10.623,0,0,1,1.063-4.913,7.273,7.273,0,0,1,3.014-3.131,9.341,9.341,0,0,1,4.536-1.063,9.657,9.657,0,0,1,2.8.369,6.487,6.487,0,0,1,2.065,1.03,5.66,5.66,0,0,1,1.424,1.59,8.682,8.682,0,0,1,1,2.532,15.727,15.727,0,0,1,.369,3.533h-11.144a7.962,7.962,0,0,0,1.135,4.683,3.959,3.959,0,0,0,3.4,1.5,5.6,5.6,0,0,0,2.409-.5,8.453,8.453,0,0,0,2.321-1.766l1.424,1.546a11.535,11.535,0,0,1-3.553,2.69,9.75,9.75,0,0,1-4.041.791Q1371.654-10994.719,1369.589-10996.959Zm4.114-12.561a9.085,9.085,0,0,0-.958,3.956h5.854a10.322,10.322,0,0,0-.705-4.009,2.117,2.117,0,0,0-2.037-1.318A2.42,2.42,0,0,0,1373.7-11009.52Zm23.424,14.521v-1.16a2.07,2.07,0,0,0,1.124-.572,2.134,2.134,0,0,0,.43-1.019,15.683,15.683,0,0,0,.114-2.312v-4.693q0-1.25-.053-2.049a8.792,8.792,0,0,0-.167-1.31,2.909,2.909,0,0,0-.316-.853,2.345,2.345,0,0,0-.447-.561,1.588,1.588,0,0,0-.563-.325,2.57,2.57,0,0,0-.808-.105,2.8,2.8,0,0,0-1.391.411,3.691,3.691,0,0,0-1.213,1.144,2.733,2.733,0,0,0-.491,1.555v6.77a17.146,17.146,0,0,0,.105,2.32,2.041,2.041,0,0,0,.43,1.027,2.148,2.148,0,0,0,1.152.572v1.16h-8.491v-1.16a2.37,2.37,0,0,0,1.169-.6,2.035,2.035,0,0,0,.441-1,15.485,15.485,0,0,0,.114-2.3v-7.225q0-1.3-.044-1.924a3.078,3.078,0,0,0-.211-1,1.43,1.43,0,0,0-.511-.616,3.451,3.451,0,0,0-1.185-.414v-1.193l4.816-.142h2.215l-.264,2.531.211.053a18.939,18.939,0,0,1,1.915-1.521,8.058,8.058,0,0,1,1.732-.88,5.6,5.6,0,0,1,1.907-.325,6.011,6.011,0,0,1,2.39.414,3.745,3.745,0,0,1,1.541,1.2,5.08,5.08,0,0,1,.844,1.933,12.361,12.361,0,0,1,.253,2.656v6.434c0,.514.011,1,.028,1.449a5.281,5.281,0,0,0,.13,1.082,2,2,0,0,0,.291.658,1.455,1.455,0,0,0,.519.431,3.919,3.919,0,0,0,.808.3v1.16Zm-39.851,0v-1.16a1.512,1.512,0,0,0,.808-.292.7.7,0,0,0,.211-.535,1.968,1.968,0,0,0-.078-.553,4.243,4.243,0,0,0-.377-.8q-.3-.529-1.213-1.935l-2.69-4.149a12.425,12.425,0,0,0-.852-1.177,2.485,2.485,0,0,0-.722-.605,2.185,2.185,0,0,0-.994-.186h-.353v6.978c0,.411.014.791.036,1.144a3.713,3.713,0,0,0,.142.86,1.506,1.506,0,0,0,.308.563,1.675,1.675,0,0,0,.552.395,4.589,4.589,0,0,0,.86.292v1.16h-9.226v-1.16a5.135,5.135,0,0,0,1.027-.378,1.315,1.315,0,0,0,.563-.563,2.517,2.517,0,0,0,.236-.913c.036-.369.053-.836.053-1.4v-15.152c0-.55-.014-1.013-.044-1.388a2.348,2.348,0,0,0-.228-.913,1.412,1.412,0,0,0-.563-.572,4.355,4.355,0,0,0-1.044-.4v-1.16h9.226v1.16a3.8,3.8,0,0,0-1.08.422,1.513,1.513,0,0,0-.511.547,2.514,2.514,0,0,0-.236.808,11.4,11.4,0,0,0-.072,1.493v6.26h.369a3.746,3.746,0,0,0,1.285-.178,3.048,3.048,0,0,0,.974-.633c.336-.3.98-1.017,1.935-2.135s1.646-1.979,2.073-2.584a7.918,7.918,0,0,0,.88-1.493,3.118,3.118,0,0,0,.236-1.169,1.2,1.2,0,0,0-.414-.969,1.832,1.832,0,0,0-1.169-.369v-1.16h8.982v1.2a4.125,4.125,0,0,0-1.141.369,5.509,5.509,0,0,0-1.091.8,20.956,20.956,0,0,0-1.565,1.627l-5.271,5.907,6.134,9.42c.455.705.841,1.264,1.152,1.68a9.154,9.154,0,0,0,.816.977,3.114,3.114,0,0,0,.694.536,4.653,4.653,0,0,0,.9.342v1.144ZM1342-11022v-7h38v7Zm0-10,24.5-28,24.5,28Z" transform="translate(-1259 11194)" fill="#fff"/>
  </g>
</svg>
